{"accessors":[{"bufferView":0,"byteOffset":0,"componentType":5126,"count":11865,"max":[2704.96875,4843.21875,366.65625],"min":[-2660.96875,-2692.28125,-431.4375],"type":"VEC3"},{"bufferView":1,"byteOffset":0,"componentType":5125,"count":11865,"type":"SCALAR"},{"bufferView":2,"byteOffset":0,"componentType":5126,"count":45275,"max":[1404.5,4265.09375,489.28125],"min":[-2024.46875,-2249.25,-523.40625],"type":"VEC3"},{"bufferView":3,"byteOffset":0,"componentType":5125,"count":45275,"type":"SCALAR"},{"bufferView":4,"byteOffset":0,"componentType":5126,"count":1278,"max":[458.25,304.5625,208.90625],"min":[-342.3125,-952.71875,-409.5],"type":"VEC3"},{"bufferView":5,"byteOffset":0,"componentType":5125,"count":1278,"type":"SCALAR"},{"bufferView":6,"byteOffset":0,"componentType":5126,"count":3135,"max":[1020.375,926.09375,491.0],"min":[-1934.125,-1394.8125,-334.03125],"type":"VEC3"},{"bufferView":7,"byteOffset":0,"componentType":5125,"count":3135,"type":"SCALAR"},{"bufferView":8,"byteOffset":0,"componentType":5126,"count":4174,"max":[389.71875,203.4375,100.75],"min":[-191.9375,-724.15625,-448.6875],"type":"VEC3"},{"bufferView":9,"byteOffset":0,"componentType":5125,"count":4174,"type":"SCALAR"},{"bufferView":10,"byteOffset":0,"componentType":5126,"count":12056,"max":[1172.125,3930.03125,419.53125],"min":[-1899.5625,-1642.6875,-523.375],"type":"VEC3"},{"bufferView":11,"byteOffset":0,"componentType":5125,"count":12056,"type":"SCALAR"},{"bufferView":12,"byteOffset":0,"componentType":5126,"count":3034,"max":[353.75,181.34375,272.21875],"min":[-352.78125,-710.0,-419.03125],"type":"VEC3"},{"bufferView":13,"byteOffset":0,"componentType":5125,"count":3034,"type":"SCALAR"},{"bufferView":14,"byteOffset":0,"componentType":5126,"count":8989,"max":[1005.625,3950.71875,326.375],"min":[-1932.09375,-1505.125,-566.59375],"type":"VEC3"},{"bufferView":15,"byteOffset":0,"componentType":5125,"count":8989,"type":"SCALAR"},{"bufferView":16,"byteOffset":0,"componentType":5126,"count":102,"max":[1329.46875,167.28125,55.78125],"min":[357.34375,-272.28125,-328.71875],"type":"VEC3"},{"bufferView":17,"byteOffset":0,"componentType":5125,"count":102,"type":"SCALAR"},{"bufferView":18,"byteOffset":0,"componentType":5126,"count":3,"max":[855.25,-112.125,17.34375],"min":[818.375,-149.9375,-7.90625],"type":"VEC3"},{"bufferView":19,"byteOffset":0,"componentType":5125,"count":3,"type":"SCALAR"},{"bufferView":20,"byteOffset":0,"componentType":5126,"count":64,"max":[172.1875,-110.4375,28.6875],"min":[-169.71875,-424.3125,-239.25],"type":"VEC3"},{"bufferView":21,"byteOffset":0,"componentType":5125,"count":64,"type":"SCALAR"},{"bufferView":22,"byteOffset":0,"componentType":5126,"count":9,"max":[55.71875,56.15625,40.875],"min":[-43.1875,-1.34375,-37.15625],"type":"VEC3"},{"bufferView":23,"byteOffset":0,"componentType":5125,"count":9,"type":"SCALAR"},{"bufferView":24,"byteOffset":0,"componentType":5126,"count":1,"max":[-35.6875,2.15625,30.9375],"min":[-35.6875,2.15625,30.9375],"type":"VEC3"},{"bufferView":25,"byteOffset":0,"componentType":5125,"count":1,"type":"SCALAR"},{"bufferView":26,"byteOffset":0,"componentType":5126,"count":140,"max":[498.25,3584.875,352.03125],"min":[-354.46875,-233.28125,-145.40625],"type":"VEC3"},{"bufferView":27,"byteOffset":0,"componentType":5125,"count":140,"type":"SCALAR"},{"bufferView":28,"byteOffset":0,"componentType":5126,"count":2996,"max":[1068.46875,4256.90625,211.90625],"min":[-567.03125,-27.625,-287.40625],"type":"VEC3"},{"bufferView":29,"byteOffset":0,"componentType":5125,"count":2996,"type":"SCALAR"}],"asset":{"generator":"VTK","version":"2.0"},"bufferViews":[{"buffer":0,"byteLength":142380,"byteOffset":0,"target":34962},{"buffer":1,"byteLength":47460,"byteOffset":0,"target":34963},{"buffer":2,"byteLength":543300,"byteOffset":0,"target":34962},{"buffer":3,"byteLength":181100,"byteOffset":0,"target":34963},{"buffer":4,"byteLength":15336,"byteOffset":0,"target":34962},{"buffer":5,"byteLength":5112,"byteOffset":0,"target":34963},{"buffer":6,"byteLength":37620,"byteOffset":0,"target":34962},{"buffer":7,"byteLength":12540,"byteOffset":0,"target":34963},{"buffer":8,"byteLength":50088,"byteOffset":0,"target":34962},{"buffer":9,"byteLength":16696,"byteOffset":0,"target":34963},{"buffer":10,"byteLength":144672,"byteOffset":0,"target":34962},{"buffer":11,"byteLength":48224,"byteOffset":0,"target":34963},{"buffer":12,"byteLength":36408,"byteOffset":0,"target":34962},{"buffer":13,"byteLength":12136,"byteOffset":0,"target":34963},{"buffer":14,"byteLength":107868,"byteOffset":0,"target":34962},{"buffer":15,"byteLength":35956,"byteOffset":0,"target":34963},{"buffer":16,"byteLength":1224,"byteOffset":0,"target":34962},{"buffer":17,"byteLength":408,"byteOffset":0,"target":34963},{"buffer":18,"byteLength":36,"byteOffset":0,"target":34962},{"buffer":19,"byteLength":12,"byteOffset":0,"target":34963},{"buffer":20,"byteLength":768,"byteOffset":0,"target":34962},{"buffer":21,"byteLength":256,"byteOffset":0,"target":34963},{"buffer":22,"byteLength":108,"byteOffset":0,"target":34962},{"buffer":23,"byteLength":36,"byteOffset":0,"target":34963},{"buffer":24,"byteLength":12,"byteOffset":0,"target":34962},{"buffer":25,"byteLength":4,"byteOffset":0,"target":34963},{"buffer":26,"byteLength":1680,"byteOffset":0,"target":34962},{"buffer":27,"byteLength":560,"byteOffset":0,"target":34963},{"buffer":28,"byteLength":35952,"byteOffset":0,"target":34962},{"buffer":29,"byteLength":11984,"byteOffset":0,"target":34963}],"buffers":[{"byteLength":142380,"uri":"data:application/octet-stream;base64,"},{"byteLength":47460,"uri":"data:application/octet-stream;base64,"},{"byteLength":543300,"uri":"data:application/octet-stream;base64,"},{"byteLength":181100,"uri":"data:application/octet-stream;base64,"},{"byteLength":15336,"uri":"data:application/octet-stream;base64,"},{"byteLength":5112,"uri":"data:application/octet-stream;base64,"},{"byteLength":37620,"uri":"data:application/octet-stream;base64,"},{"byteLength":12540,"uri":"data:application/octet-stream;base64,"},{"byteLength":50088,"uri":"data:application/octet-stream;base64,"},{"byteLength":16696,"uri":"data:application/octet-stream;base64,"},{"byteLength":144672,"uri":"data:application/octet-stream;base64,"},{"byteLength":48224,"uri":"data:application/octet-stream;base64,"},{"byteLength":36408,"uri":"data:application/octet-stream;base64,"},{"byteLength":12136,"uri":"data:application/octet-stream;base64,"},{"byteLength":107868,"uri":"data:application/octet-stream;base64,"},{"byteLength":35956,"uri":"data:application/octet-stream;base64,"},{"byteLength":1224,"uri":"data:application/octet-stream;base64,"},{"byteLength":408,"uri":"data:application/octet-stream;base64,"},{"byteLength":36,"uri":"data:application/octet-stream;base64,"},{"byteLength":12,"uri":"data:application/octet-stream;base64,"},{"byteLength":768,"uri":"data:application/octet-stream;base64,"},{"byteLength":256,"uri":"data:application/octet-stream;base64,"},{"byteLength":108,"uri":"data:application/octet-stream;base64,"},{"byteLength":36,"uri":"data:application/octet-stream;base64,"},{"byteLength":12,"uri":"data:application/octet-stream;base64,"},{"byteLength":4,"uri":"data:application/octet-stream;base64,"},{"byteLength":1680,"uri":"data:application/octet-stream;base64,"},{"byteLength":560,"uri":"data:application/octet-stream;base64,"},{"byteLength":35952,"uri":"data:application/octet-stream;base64,"},{"byteLength":11984,"uri":"data:application/octet-stream;base64,"}],"cameras":[{"perspective":{"aspectRatio":1.0298507462686568,"yfov":0.5235987755982988,"zfar":1000.01,"znear":0.01},"type":"perspective"}],"materials":[{"pbrMetallicRoughness":{"baseColorFactor":[1.0,1.0,0.0,0.5],"metallicFactor":0.1,"roughnessFactor":0.5}},{"pbrMetallicRoughness":{"baseColorFactor":[1.0,1.0,0.0,0.5],"metallicFactor":0.1,"roughnessFactor":0.5}},{"pbrMetallicRoughness":{"baseColorFactor":[0.0,0.5019607843137255,0.0,0.5],"metallicFactor":0.5,"roughnessFactor":0.5}},{"pbrMetallicRoughness":{"baseColorFactor":[0.0,0.5019607843137255,0.0,0.5],"metallicFactor":0.5,"roughnessFactor":0.5}},{"pbrMetallicRoughness":{"baseColorFactor":[0.0,0.0,1.0,0.8],"metallicFactor":0.5,"roughnessFactor":0.5}},{"pbrMetallicRoughness":{"baseColorFactor":[0.0,0.0,1.0,0.8],"metallicFactor":0.5,"roughnessFactor":0.5}},{"pbrMetallicRoughness":{"baseColorFactor":[1.0,0.0,0.0,0.6],"metallicFactor":0.1,"roughnessFactor":0.5}},{"pbrMetallicRoughness":{"baseColorFactor":[1.0,0.0,0.0,0.6],"metallicFactor":0.1,"roughnessFactor":0.5}},{"pbrMetallicRoughness":{"baseColorFactor":[0.49019607843137253,0.9764705882352941,1.0,0.8],"metallicFactor":0.8,"roughnessFactor":0.5}},{"pbrMetallicRoughness":{"baseColorFactor":[0.49019607843137253,0.9764705882352941,1.0,0.8],"metallicFactor":0.8,"roughnessFactor":0.5}},{"pbrMetallicRoughness":{"baseColorFactor":[0.10196078431372549,0.9019607843137255,0.2,0.8],"metallicFactor":0.8,"roughnessFactor":0.5}},{"pbrMetallicRoughness":{"baseColorFactor":[1.0,0.0,1.0,0.3],"metallicFactor":0.1,"roughnessFactor":0.5}},{"pbrMetallicRoughness":{"baseColorFactor":[0.5019607843137255,0.5019607843137255,0.5019607843137255,0.3],"metallicFactor":0.1,"roughnessFactor":0.5}},{"pbrMetallicRoughness":{"baseColorFactor":[1.0,0.6470588235294118,0.0,0.8],"metallicFactor":0.1,"roughnessFactor":0.5}},{"pbrMetallicRoughness":{"baseColorFactor":[1.0,0.0,1.0,0.8],"metallicFactor":0.1,"roughnessFactor":0.5}}],"meshes":[{"name":"mesh0","primitives":[{"attributes":{"POSITION":0},"indices":1,"material":0,"mode":0}]},{"name":"mesh1","primitives":[{"attributes":{"POSITION":2},"indices":3,"material":1,"mode":0}]},{"name":"mesh2","primitives":[{"attributes":{"POSITION":4},"indices":5,"material":2,"mode":0}]},{"name":"mesh3","primitives":[{"attributes":{"POSITION":6},"indices":7,"material":3,"mode":0}]},{"name":"mesh4","primitives":[{"attributes":{"POSITION":8},"indices":9,"material":4,"mode":0}]},{"name":"mesh5","primitives":[{"attributes":{"POSITION":10},"indices":11,"material":5,"mode":0}]},{"name":"mesh6","primitives":[{"attributes":{"POSITION":12},"indices":13,"material":6,"mode":0}]},{"name":"mesh7","primitives":[{"attributes":{"POSITION":14},"indices":15,"material":7,"mode":0}]},{"name":"mesh8","primitives":[{"attributes":{"POSITION":16},"indices":17,"material":8,"mode":0}]},{"name":"mesh9","primitives":[{"attributes":{"POSITION":18},"indices":19,"material":9,"mode":0}]},{"name":"mesh10","primitives":[{"attributes":{"POSITION":20},"indices":21,"material":10,"mode":0}]},{"name":"mesh11","primitives":[{"attributes":{"POSITION":22},"indices":23,"material":11,"mode":0}]},{"name":"mesh12","primitives":[{"attributes":{"POSITION":24},"indices":25,"material":12,"mode":0}]},{"name":"mesh13","primitives":[{"attributes":{"POSITION":26},"indices":27,"material":13,"mode":0}]},{"name":"mesh14","primitives":[{"attributes":{"POSITION":28},"indices":29,"material":14,"mode":0}]}],"nodes":[{"matrix":[0.0,0.0,1.0000000000000004,0.0,1.0000000000000004,0.0,0.0,0.0,0.0,1.0000000000000004,0.0,0.0,0.0,0.0,0.0,1.0],"mesh":0,"name":"mesh0"},{"matrix":[0.0,0.0,1.0000000000000004,0.0,1.0000000000000004,0.0,0.0,0.0,0.0,1.0000000000000004,0.0,0.0,0.0,0.0,0.0,1.0],"mesh":1,"name":"mesh1"},{"matrix":[0.0,0.0,1.0000000000000004,0.0,1.0000000000000004,0.0,0.0,0.0,0.0,1.0000000000000004,0.0,0.0,0.0,0.0,0.0,1.0],"mesh":2,"name":"mesh2"},{"matrix":[0.0,0.0,1.0000000000000004,0.0,1.0000000000000004,0.0,0.0,0.0,0.0,1.0000000000000004,0.0,0.0,0.0,0.0,0.0,1.0],"mesh":3,"name":"mesh3"},{"matrix":[0.0,0.0,1.0000000000000004,0.0,1.0000000000000004,0.0,0.0,0.0,0.0,1.0000000000000004,0.0,0.0,0.0,0.0,0.0,1.0],"mesh":4,"name":"mesh4"},{"matrix":[0.0,0.0,1.0000000000000004,0.0,1.0000000000000004,0.0,0.0,0.0,0.0,1.0000000000000004,0.0,0.0,0.0,0.0,0.0,1.0],"mesh":5,"name":"mesh5"},{"matrix":[0.0,0.0,1.0000000000000004,0.0,1.0000000000000004,0.0,0.0,0.0,0.0,1.0000000000000004,0.0,0.0,0.0,0.0,0.0,1.0],"mesh":6,"name":"mesh6"},{"matrix":[0.0,0.0,1.0000000000000004,0.0,1.0000000000000004,0.0,0.0,0.0,0.0,1.0000000000000004,0.0,0.0,0.0,0.0,0.0,1.0],"mesh":7,"name":"mesh7"},{"matrix":[0.0,0.0,1.0000000000000004,0.0,1.0000000000000004,0.0,0.0,0.0,0.0,1.0000000000000004,0.0,0.0,0.0,0.0,0.0,1.0],"mesh":8,"name":"mesh8"},{"matrix":[0.0,0.0,1.0000000000000004,0.0,1.0000000000000004,0.0,0.0,0.0,0.0,1.0000000000000004,0.0,0.0,0.0,0.0,0.0,1.0],"mesh":9,"name":"mesh9"},{"matrix":[0.0,0.0,1.0000000000000004,0.0,1.0000000000000004,0.0,0.0,0.0,0.0,1.0000000000000004,0.0,0.0,0.0,0.0,0.0,1.0],"mesh":10,"name":"mesh10"},{"matrix":[0.0,0.0,1.0000000000000004,0.0,1.0000000000000004,0.0,0.0,0.0,0.0,1.0000000000000004,0.0,0.0,0.0,0.0,0.0,1.0],"mesh":11,"name":"mesh11"},{"matrix":[0.0,0.0,1.0000000000000004,0.0,1.0000000000000004,0.0,0.0,0.0,0.0,1.0000000000000004,0.0,0.0,0.0,0.0,0.0,1.0],"mesh":12,"name":"mesh12"},{"matrix":[0.0,0.0,1.0000000000000004,0.0,1.0000000000000004,0.0,0.0,0.0,0.0,1.0000000000000004,0.0,0.0,0.0,0.0,0.0,1.0],"mesh":13,"name":"mesh13"},{"matrix":[0.0,0.0,1.0000000000000004,0.0,1.0000000000000004,0.0,0.0,0.0,0.0,1.0000000000000004,0.0,0.0,0.0,0.0,0.0,1.0],"mesh":14,"name":"mesh14"},{"camera":0,"matrix":[1.0,-0.0,0.0,-0.0,-0.0,1.0,-0.0,0.0,0.0,-0.0,1.0,-0.0,-0.0,0.0,1.0,1.0],"name":"Camera Node"},{"children":[0,1,2,3,4,5,6,7,8,9,10,11,12,13,14,15],"name":"Renderer Node"}],"scene":0,"scenes":[{"name":"Layer 0","nodes":[16]}]}